<svg xmlns="http://www.w3.org/2000/svg" xmlns:xlink="http://www.w3.org/1999/xlink"><symbol id="sprite-star" fill="none" viewBox="0 0 42 42"><rect width="42" height="42" fill="#316DC2" rx="21"/><g clip-path="url(#a)"><path fill="#fff" d="m21 10 3.01 5.48 5.99.02-2.97 5.5 2.97 5.5-5.99.03-3.01 5.47-3.01-5.47-5.99-.03 2.97-5.5-2.97-5.5 5.99-.02z"/></g><defs><clipPath id="a"><path fill="#fff" d="M12 10h18v22h-18z"/></clipPath></defs></symbol><use xlink:href="#sprite-star" width="42" height="42"/><view id="sprite-star-view" viewBox="0 0 42 42"/><symbol id="sprite-arrow-hv-blue" fill="none" viewBox="0 0 46 46"><rect width="46" height="46" fill="#316DC2" rx="23"/><g clip-path="url(#a)"><path stroke="#fff" stroke-width="2" d="M17.34 23h11.32m0 0-5.62-5.62m5.62 5.62-5.62 5.62"/></g><defs><clipPath id="a"><path fill="#fff" d="m23 15.93 7.07 7.07-7.07 7.07-7.07-7.07z"/></clipPath></defs></symbol><use xlink:href="#sprite-arrow-hv-blue" width="46" height="46" y="42"/><view id="sprite-arrow-hv-blue-view" viewBox="0 42 46 46"/><symbol id="sprite-arrow-hv-light" fill="none" viewBox="0 0 46 46"><rect width="46" height="46" fill="#fff" rx="23"/><g clip-path="url(#a)"><path fill="#316DC2" d="m28.66 23 .7.7.71-.7-.7-.7zm-11.32 1h11.32v-2h-11.32zm12.02-1.7-5.62-5.63-1.41 1.42 5.62 5.62zm-1.41 0-5.62 5.61 1.42 1.42 5.61-5.62z"/></g><defs><clipPath id="a"><path fill="#fff" d="m23 15.93 7.07 7.07-7.07 7.07-7.07-7.07z"/></clipPath></defs></symbol><use xlink:href="#sprite-arrow-hv-light" width="46" height="46" y="88"/><view id="sprite-arrow-hv-light-view" viewBox="0 88 46 46"/><symbol id="sprite-arrow-df-blue" fill="none" viewBox="0 0 46 46"><rect width="46" height="46" fill="#fff" rx="23"/><g clip-path="url(#a)"><path stroke="#316DC2" stroke-width="2" d="m19 27 8-8m0 0h-7.95m7.95 0v7.95"/></g><defs><clipPath id="a"><path fill="#fff" d="M18 18h10v10h-10z"/></clipPath></defs></symbol><use xlink:href="#sprite-arrow-df-blue" width="46" height="46" y="134"/><view id="sprite-arrow-df-blue-view" viewBox="0 134 46 46"/><symbol id="sprite-arrow-fc-light" fill="none" viewBox="0 0 46 46"><rect width="46" height="46" fill="#316DC2" rx="23"/><g clip-path="url(#a)"><path stroke="#fff" stroke-width="2" d="M17.34 23h11.32m0 0-5.62-5.62m5.62 5.62-5.62 5.62"/></g><defs><clipPath id="a"><path fill="#fff" d="m23 15.93 7.07 7.07-7.07 7.07-7.07-7.07z"/></clipPath></defs></symbol><use xlink:href="#sprite-arrow-fc-light" width="46" height="46" y="180"/><view id="sprite-arrow-fc-light-view" viewBox="0 180 46 46"/><symbol id="sprite-arrow-act-blue" fill="none" viewBox="0 0 46 46"><rect width="46" height="46" fill="#316DC2" rx="23"/><g clip-path="url(#a)" opacity=".7"><path stroke="#fff" stroke-width="2" d="M17.34 23h11.32m0 0-5.62-5.62m5.62 5.62-5.62 5.62"/></g><defs><clipPath id="a"><path fill="#fff" d="m23 15.93 7.07 7.07-7.07 7.07-7.07-7.07z"/></clipPath></defs></symbol><use xlink:href="#sprite-arrow-act-blue" width="46" height="46" y="226"/><view id="sprite-arrow-act-blue-view" viewBox="0 226 46 46"/><symbol id="sprite-arrow-fc-blue" fill="none" viewBox="0 0 46 46"><rect width="46" height="46" fill="#fff" rx="23"/><g clip-path="url(#a)"><path stroke="#316DC2" stroke-width="2" d="M17.34 23h11.32m0 0-5.62-5.62m5.62 5.62-5.62 5.62"/></g><defs><clipPath id="a"><path fill="#fff" d="m23 15.93 7.07 7.07-7.07 7.07-7.07-7.07z"/></clipPath></defs></symbol><use xlink:href="#sprite-arrow-fc-blue" width="46" height="46" y="272"/><view id="sprite-arrow-fc-blue-view" viewBox="0 272 46 46"/><symbol id="sprite-plus-default" fill="none" viewBox="0 0 40 40"><rect width="40" height="40" fill="#316DC2" rx="20"/><path stroke="#fff" d="M20 11v9m0 0v9m0-9h-9m9 0h9"/></symbol><use xlink:href="#sprite-plus-default" width="40" height="40" y="318"/><view id="sprite-plus-default-view" viewBox="0 318 40 40"/><symbol id="sprite-plus-hover&amp;focus" fill="none" viewBox="0 0 40 40"><rect width="39" height="39" x=".5" y=".5" stroke="#316DC2" rx="19.5"/><path stroke="#316DC2" d="M20 11v9m0 0v9m0-9h-9m9 0h9"/></symbol><use xlink:href="#sprite-plus-hover&amp;focus" width="40" height="40" y="358"/><view id="sprite-plus-hover&amp;focus-view" viewBox="0 358 40 40"/><symbol id="sprite-plus-active" fill="none" viewBox="0 0 40 40"><rect width="40" height="40" fill="#275699" rx="20"/><path stroke="#fff" d="M20 11v9m0 0v9m0-9h-9m9 0h9"/></symbol><use xlink:href="#sprite-plus-active" width="40" height="40" y="398"/><view id="sprite-plus-active-view" viewBox="0 398 40 40"/><symbol id="sprite-minus-default" fill="none" viewBox="0 0 40 40"><rect width="40" height="40" fill="#fff" rx="20"/><path stroke="#316DC2" d="M11 20h18"/></symbol><use xlink:href="#sprite-minus-default" width="40" height="40" y="438"/><view id="sprite-minus-default-view" viewBox="0 438 40 40"/><symbol id="sprite-minus-hover&amp;focus" fill="none" viewBox="0 0 40 40"><rect width="39" height="39" x=".5" y=".5" stroke="#fff" rx="19.5"/><path stroke="#fff" d="M11 20h18"/></symbol><use xlink:href="#sprite-minus-hover&amp;focus" width="40" height="40" y="478"/><view id="sprite-minus-hover&amp;focus-view" viewBox="0 478 40 40"/><symbol id="sprite-minus-active" fill="none" viewBox="0 0 40 40"><rect width="40" height="40" fill="#fff" rx="20"/><path stroke="#275699" d="M11 20h18"/></symbol><use xlink:href="#sprite-minus-active" width="40" height="40" y="518"/><view id="sprite-minus-active-view" viewBox="0 518 40 40"/><symbol id="sprite-plus-disabled" fill="none" viewBox="0 0 40 40"><rect width="40" height="40" fill="#A9AFB7" rx="20"/><path stroke="#fff" d="M20 11v9m0 0v9m0-9h-9m9 0h9" opacity=".6"/></symbol><use xlink:href="#sprite-plus-disabled" width="40" height="40" y="558"/><view id="sprite-plus-disabled-view" viewBox="0 558 40 40"/><symbol id="sprite-arrow-act-light" fill="none" viewBox="0 0 46 46"><rect width="46" height="46" fill="#fff" rx="23"/><g clip-path="url(#a)" opacity=".7"><path stroke="#316DC2" stroke-width="2" d="M17.34 23h11.32m0 0-5.62-5.62m5.62 5.62-5.62 5.62"/></g><defs><clipPath id="a"><path fill="#fff" d="m23 15.93 7.07 7.07-7.07 7.07-7.07-7.07z"/></clipPath></defs></symbol><use xlink:href="#sprite-arrow-act-light" width="46" height="46" y="598"/><view id="sprite-arrow-act-light-view" viewBox="0 598 46 46"/><symbol id="sprite-logo" fill="none" viewBox="0 0 52 52"><rect width="52" height="52" fill="#fff" rx="26"/><path fill="#316DC2" d="M11.92 19.8c-.85.6-1.35 1.9-.41 3.43s14.38 11.9 14.88 12.2.98.33 2.24-.68 11.74-8.88 12-9.12c.44-.38.54-1.3 0-1.73 0 0-12.7 9.5-13.11 9.89-.42.38-1.06-.24-.94-1.06s.2-.9 1.82-2.16l11.18-8.48c.47-.35.48-.96-.3-1.5l-13.01-9.27c-.4-.3-.93-.55-1.73.02-.81.58-11.06 7.35-12.62 8.46"/><path fill="#316DC2" d="M26.39 36.43c-.33-.19-6.23-4.71-10.51-8.24v7.35c0 5.37 15.12 8.24 20.13 1.64v-7.03a778 778 0 0 0-7.38 5.61c-1.26 1-1.75.96-2.24.67"/><path fill="#98B8E6" d="M32.78 28.37s2.25 1.13 2.41 5.68l-1.09-.3-.87 1.85c-.37-4.98-2.37-5.7-2.37-5.7z"/></symbol><use xlink:href="#sprite-logo" width="52" height="52" y="644"/><view id="sprite-logo-view" viewBox="0 644 52 52"/><symbol id="sprite-vk" fill="none" viewBox="0 0 22 22"><path fill="#fff" d="M21.8 15.7c-.06-.1-.42-.85-2.18-2.41-1.84-1.64-1.6-1.37.62-4.2 1.36-1.72 1.9-2.77 1.73-3.22-.16-.43-1.16-.32-1.16-.32l-3.3.02s-.25-.03-.43.07-.3.34-.3.34-.52 1.33-1.22 2.47c-1.47 2.39-2.06 2.51-2.3 2.37-.56-.35-.42-1.4-.42-2.14 0-2.31.37-3.28-.72-3.53a6 6 0 0 0-1.54-.15c-1.18 0-2.18 0-2.74.27-.38.18-.67.57-.5.6.22.02.72.12.98.46.34.44.33 1.43.33 1.43s.2 2.73-.46 3.07c-.44.23-1.06-.24-2.37-2.41-.67-1.11-1.18-2.34-1.18-2.34s-.1-.23-.27-.35a1.4 1.4 0 0 0-.51-.2l-3.14.02s-.47.01-.65.2c-.15.18-.01.54-.01.54s2.46 5.5 5.25 8.28c2.55 2.55 5.46 2.38 5.46 2.38h1.3s.4-.04.6-.25.19-.55.19-.55-.03-1.69.8-1.94c.8-.24 1.84 1.63 2.93 2.35.83.55 1.47.43 1.47.43l2.94-.04s1.53-.1.8-1.25"/></symbol><use xlink:href="#sprite-vk" width="22" height="22" y="696"/><view id="sprite-vk-view" viewBox="0 696 22 22"/><symbol id="sprite-ok" fill="none" viewBox="0 0 22 22"><path fill="#fff" d="M11 3.33c1.32 0 2.4 1.05 2.4 2.35s-1.08 2.35-2.4 2.35-2.4-1.06-2.4-2.35c0-1.3 1.08-2.35 2.4-2.35m0 8.02c3.2 0 5.8-2.54 5.8-5.67s-2.6-5.68-5.8-5.68-5.79 2.55-5.79 5.68 2.6 5.68 5.79 5.68m2.34 4.63a11 11 0 0 0 3.37-1.37 1.64 1.64 0 0 0 .53-2.3 1.7 1.7 0 0 0-2.34-.52 7.5 7.5 0 0 1-7.8 0 1.7 1.7 0 0 0-2.34.53 1.64 1.64 0 0 0 .53 2.29 11 11 0 0 0 3.37 1.37l-3.24 3.17a1.64 1.64 0 0 0 0 2.35 1.73 1.73 0 0 0 2.4 0l3.18-3.12 3.18 3.12a1.7 1.7 0 0 0 2.4 0 1.64 1.64 0 0 0 0-2.35z"/></symbol><use xlink:href="#sprite-ok" width="22" height="22" y="718"/><view id="sprite-ok-view" viewBox="0 718 22 22"/><symbol id="sprite-rd" fill="none" viewBox="0 0 22 22"><path fill="#fff" d="M12.95.5a2.1 2.1 0 0 0-1.63.83c-.39.5-.6 1.1-.76 1.73a15 15 0 0 0-.34 3.17c-1.8.12-3.43.68-4.79 1.55a2.8 2.8 0 0 0-1.85-.75 2.4 2.4 0 0 0-1.92 1 3.8 3.8 0 0 0 .27 4.64 7 7 0 0 0-.12 1.18c0 4.23 4.11 7.65 9.19 7.65s9.2-3.43 9.2-7.65q-.01-.6-.13-1.18a3.8 3.8 0 0 0 .27-4.63 2.4 2.4 0 0 0-1.92-1.01c-.64 0-1.3.26-1.85.75a10 10 0 0 0-4.77-1.56c.03-.93.1-1.9.27-2.64q.17-.7.39-.98c.22-.28.25-.26.49-.26.52 0 .58.18.9.6.15.22.34.5.63.75.29.27.72.5 1.19.5v-1.85c-.13 0-.16 0-.24-.09q-.13-.13-.4-.51c-.35-.5-1.05-1.24-2.08-1.24m5.06.17c-1.22 0-2.2 1.16-2.2 2.6 0 1.42.98 2.58 2.2 2.58s2.18-1.16 2.18-2.59-.98-2.59-2.19-2.59m0 .92c.78 0 1.41.75 1.41 1.67s-.63 1.67-1.4 1.67-1.42-.75-1.42-1.67.64-1.67 1.41-1.67m-7 6.07c4.3 0 7.95 2.84 7.95 6.19s-3.64 6.18-7.95 6.18-7.95-2.83-7.95-6.18 3.64-6.19 7.95-6.19m-7.4.84q.34 0 .66.17-1.18 1.05-1.82 2.42c-.3-.72-.21-1.6.15-2.07a1.2 1.2 0 0 1 1.02-.52m14.78 0q.62 0 1.02.51c.36.48.44 1.37.15 2.08a8 8 0 0 0-1.82-2.42 2 2 0 0 1 .65-.17m-10.5 2.3c-.78 0-1.41.75-1.41 1.67s.63 1.67 1.4 1.67 1.42-.75 1.42-1.67-.63-1.67-1.41-1.67m6.22 0c-.78 0-1.4.75-1.4 1.67s.62 1.67 1.4 1.67 1.41-.75 1.41-1.67-.63-1.67-1.4-1.67m-6.99 5.67c.5 1.2 2.03 2.38 3.87 2.38s3.4-1.17 3.89-2.38c-.9.68-2.32 1.15-3.89 1.15s-2.97-.47-3.87-1.15"/></symbol><use xlink:href="#sprite-rd" width="22" height="22" y="740"/><view id="sprite-rd-view" viewBox="0 740 22 22"/><symbol id="sprite-arrow-df-light" fill="none" viewBox="0 0 46 46"><rect width="46" height="46" fill="#316DC2" rx="23"/><g clip-path="url(#a)"><path stroke="#fff" stroke-width="1.6" d="m19 27 8-8m0 0h-7.95m7.95 0v7.95"/></g><defs><clipPath id="a"><path fill="#fff" d="M18 18h10v10h-10z"/></clipPath></defs></symbol><use xlink:href="#sprite-arrow-df-light" width="46" height="46" y="762"/><view id="sprite-arrow-df-light-view" viewBox="0 762 46 46"/><symbol id="sprite-arrow-dis" fill="none" viewBox="0 0 46 46"><rect width="46" height="46" fill="#A9AFB7" rx="23"/><g clip-path="url(#a)" opacity=".6"><path stroke="#fff" stroke-width="2" d="m19 27 8-8m0 0h-7.95m7.95 0v7.95"/></g><defs><clipPath id="a"><path fill="#fff" d="M18 18h10v10h-10z"/></clipPath></defs></symbol><use xlink:href="#sprite-arrow-dis" width="46" height="46" y="808"/><view id="sprite-arrow-dis-view" viewBox="0 808 46 46"/></svg>